<?xml version="1.0" encoding="UTF-8" standalone="no"?>
<!-- Created with Inkscape (http://www.inkscape.org/) -->

<svg
   version="1.1"
   id="svg1"
   width="1024"
   height="1024"
   viewBox="0 0 1024 1024"
   sodipodi:docname="fox-icon.svg"
   inkscape:version="1.4.3 (0d15f75, 2025-12-25)"
   xmlns:inkscape="http://www.inkscape.org/namespaces/inkscape"
   xmlns:sodipodi="http://sodipodi.sourceforge.net/DTD/sodipodi-0.dtd"
   xmlns="http://www.w3.org/2000/svg"
   xmlns:svg="http://www.w3.org/2000/svg">
  <defs
     id="defs1" />
  <sodipodi:namedview
     id="namedview1"
     pagecolor="#ffffff"
     bordercolor="#666666"
     borderopacity="1.0"
     inkscape:showpageshadow="2"
     inkscape:pageopacity="0.0"
     inkscape:pagecheckerboard="0"
     inkscape:deskcolor="#d1d1d1"
     showgrid="false"
     inkscape:zoom="0.71777344"
     inkscape:cx="512.6966"
     inkscape:cy="512"
     inkscape:window-width="2880"
     inkscape:window-height="1514"
     inkscape:window-x="-11"
     inkscape:window-y="-11"
     inkscape:window-maximized="1"
     inkscape:current-layer="g1" />
  <g
     inkscape:groupmode="layer"
     inkscape:label="Image"
     id="g1">
    <path
       style="fill:#3b2415;stroke:none"
       d="m 257.42717,512.24762 c -3.4761,3.4765 -9.4272,7.68146 -9.7932,12.99927 -0.6531,9.49188 21.9969,21.53003 28.7932,26.62732 30.4664,22.84973 65.8329,46.22839 103,56.37341 -7.797,18.72778 -16.9817,36.77502 -23.6558,56 -4.3684,12.58325 -6.1424,26.80469 -11.223,38.98535 -3.6073,8.64819 -13.6716,13.92835 -17.8087,23.01465 -12.7489,28.00067 -2.9721,56.35718 10.0818,82 5.4517,10.70911 -3.7208,22.25714 9.6204,30.52087 20.1954,12.50928 44.8774,1.12177 65.9853,0.81092 4.5056,-0.0663 8.1184,4.31646 12,6.17437 5.9943,2.86915 13.3533,4.31525 20,4.31482 11.2965,-7.3e-4 18.0323,-6.07098 28,-9.25769 4.8074,-1.53692 10.9942,-0.56329 16,-0.56329 v 1 h -2 v 1 h 7 l -2,-2 v -1 c 9.528,0 23.8186,-1.35706 32.8303,1.51001 9.661,3.07367 16.1497,9.21918 27.1697,9.43597 6.5958,0.12976 14.1015,-1.27295 20,-4.22223 3.8118,-1.90582 7.6474,-6.04107 12,-6.41052 12.4701,-1.05835 26.0254,5.59351 39,4.51319 8.6386,-0.71936 17.9654,-0.62159 25.9962,-4.34491 4.6501,-2.15601 7.1974,-7.88843 12.0439,-9.16364 13.706,-3.6062 28.6962,-0.67493 42.9599,-4.74536 39.0055,-11.13074 68.5802,-44.052 79.5726,-82.57251 9.3441,-32.74457 3.2549,-64.81787 2.4421,-98 -0.4832,-19.72754 3.9831,-40.67365 15.4236,-57 3.1216,-4.45465 13.683,-13.69952 8.8156,-19.56635 -3.1392,-3.78375 -10.8319,-3.31787 -15.2539,-3.44757 -12.4234,-0.36425 -24.672,-0.39587 -37,2.01465 -53.3319,10.42835 -98.9126,45.48596 -116,97.99927 l -25,-58 c 35.7764,-8.47815 71.0927,-33.94794 100,-55.62659 7.1976,-5.39758 26.6225,-15.41833 28.9175,-24.41278 1.4585,-5.71625 -6.0217,-10.84912 -8.9175,-14.96063 5.0674,-1.45923 15.6724,-4.43781 15.7045,-11.00385 0.04,-8.12097 -13.3072,-18.31207 -17.615,-24.99615 -9.9107,-15.37769 -15.4148,-33.56775 -20.5138,-51 -2.7818,-9.51019 -10.4264,-23.15082 -9.8565,-33 0.3729,-6.44653 6.7105,-14.05054 9.2808,-20 6.3434,-14.68268 11.4228,-29.41821 15.1158,-45 7.1115,-30.00574 7.6874,-62.51263 4.0393,-93 -1.7443,-14.57721 -4.7045,-28.88049 -8.7337,-43 -1.4164,-4.96313 -2.5541,-12.86072 -6.8149,-16.25769 -6.6755,-5.32208 -21.3863,0.32379 -28.6065,2.13116 -27.1742,6.80225 -52.7628,19.29572 -76,34.79322 -12.0945,8.06616 -23.6846,17.06781 -34,27.3341 -4.4858,4.46448 -10.5391,14.3924 -16.5764,16.45679 -3.2006,1.09442 -8.3175,-1.30499 -11.4236,-2.16437 -8.1742,-2.26165 -16.5945,-3.87848 -25,-5.0108 -22.2167,-2.9928 -43.879,-2.55823 -66,1.15277 -7.6955,1.29102 -23.6847,8.82324 -30.9104,6.21216 -3.8956,-1.40772 -7.236,-6.77924 -10.0903,-9.64734 -7.0819,-7.11621 -14.2811,-13.82703 -21.9993,-20.24689 -25.2376,-20.99237 -55.4808,-37.11126 -87,-46.32873 -9.4203,-2.75489 -23.1029,-7.92694 -32.9845,-6.19214 -7.4554,1.30884 -9.132,12.69128 -10.8743,18.76776 -5.5034,19.19482 -9.6363,39.99554 -10.1265,60 -0.758,30.93347 0.8498,62.30048 10.3295,92 3.5958,11.2655 7.6079,22.40723 12.9043,33 2.487,4.97406 8.1896,11.30194 8.2014,17 0.016,7.75757 -5.1405,17.56976 -7.4252,25 -5.6725,18.44818 -10.2215,37.07721 -19.8973,54 -5.0072,8.75739 -13.2589,15.40326 -18.1027,24 -5.1262,9.09814 9.3785,13.86407 15.9753,15 m 453,-329 -1,1 1,-1 m -429,1.33331 0.3334,0.33338 c -0.4935,0.16449 -1.1068,-0.33338 -0.3334,-0.33338 m -2.3333,1.33338 -0.3333,0.66662 0.3333,-0.66662 m 433,3 -0.3333,0.66662 0.3333,-0.66662 m -407.6667,0.33331 -1,1 1,-1 m 408.6667,2.66669 -0.3333,0.66662 0.3333,-0.66662 m 1,3 -0.3333,0.66662 0.3333,-0.66662 m -50.6667,2.33331 v 1 l -8,2 8,-3 m 51.6667,0.66669 -0.3333,0.66662 0.3333,-0.66662 m -357.6667,14.33331 -1,1 1,-1 m 2,1 7,4 v 1 l -5,-1 1,-2 -3,-2 m 274,0 v 1 l -9,4 9,-5 m -226,61 c 26.1468,-6.19611 49.7059,-16.04138 77,-17.91052 35.011,-2.39759 64.7436,9.21655 98,16.91052 l -13,-9 c 8.2745,-12.50897 20.5715,-22.70325 32,-32.24615 2.8224,-2.35669 8.612,-8.88038 12.7909,-7.44751 3.0666,1.05145 5.485,6.12567 7.1197,8.69366 9.5586,15.01636 5.1151,19.29224 -3.693,33 -2.3822,3.7074 -11.6241,14.83014 -9.2237,19.32019 3.5553,6.65039 17.096,12.4892 23.0061,17.43366 14.2092,11.88745 26.753,25.74395 36.9213,41.24615 23.2209,35.40173 30.9744,75.3269 46.2825,114 6.1804,15.61371 18.0406,27.25214 24.7962,42 l -18.5154,8.70911 13.5154,17.29089 c -27.7539,17.28375 -52.0054,39.0083 -81,54.69135 -41.2846,22.33068 -84.4729,30.82647 -130,39.30865 v 1 c 9.7592,0 19.2893,-0.31213 29,-0.97534 3.2519,-0.22205 8.599,-1.97479 11.49,0.007 4.5777,3.13794 5.7734,14.89038 7.0347,19.96838 4.7841,19.26007 7.4063,55.48627 -9.5247,70 -1.4571,-1.82941 -3.7434,-5.52246 -6.6103,-4.07874 -4.0192,2.02405 -6.0844,11.34321 -8.4799,15.07874 -5.755,8.97424 -13.7896,16.11029 -22.9098,21.54706 -6.945,4.14013 -17.6915,11.24457 -26,11.24457 -5.7841,0 -12.0357,-3.95179 -17,-6.57251 -15.4233,-8.14213 -28.2932,-18.88493 -35.2037,-35.21916 -3.1071,-7.34448 -6.5689,-7.54956 -10.7963,-1 -15.7861,-16.86145 -14.3711,-48.10901 -10.1921,-69 1.0844,-5.42065 2.6135,-18.79993 7.6111,-21.95758 2.8729,-1.81513 8.3876,-0.21845 11.581,0.12347 9.0047,0.96405 17.9408,0.83411 27,0.83411 v -1 c -60.6258,-7.66846 -118.6663,-27.55225 -169,-62.71991 -9.4749,-6.62006 -18.7841,-13.43207 -28,-20.40973 -3.6352,-2.75238 -10.0036,-6.12457 -12.2484,-10.17053 -3.0294,-5.45978 8.7046,-11.59613 9.9174,-16.65588 1.2818,-5.34742 -14.7637,-8.97583 -18.669,-10.04395 7.9401,-13.75177 17.8299,-25.02808 23.9892,-40 8.137,-19.77905 12.5407,-40.87585 19.703,-61 15.6442,-43.95642 43.3003,-92.18658 87.3078,-113 l -14.155,-25 -7.3102,-13 12.4652,-25 c 13.1782,3.4256 27.2968,19.29364 36.2855,29.03937 2.4407,2.64624 8.5078,6.9303 8.5078,10.87036 0,4.27777 -8.8678,8.59521 -11.7933,11.09027 m -31,10 c -11.5038,7.61218 -22.1923,15.19617 -32,25 -2.9191,2.91803 -8.2786,10.65094 -12.9845,10.07867 -10.7229,-1.30395 -7.3009,-19.88751 -2.8025,-25.0393 1.7488,-2.00281 6.4025,-4.75733 5.4414,-7.94525 -1.5909,-5.27649 -14.4833,-4.18555 -12.9028,-11.13654 1.5403,-6.77423 19.3324,-9.68811 18.6173,-13.99768 -1.1686,-7.04254 -21.3775,-16.46637 -9.9352,-26.5332 4.6698,-4.10846 12.3935,5.39618 15.5656,8.14972 12.4382,10.79718 24.4513,26.22448 31.0007,41.42358 m 272,-20 c 4.6951,0.60632 25.0542,5.39435 19.338,13.60956 -2.3433,3.36773 -13.4571,4.44543 -12.7068,9.35571 0.4305,2.81708 4.2855,4.99786 5.9784,7.0741 4.7043,5.76977 7.6203,20.97387 -1.6998,24.63348 -5.1358,2.0166 -17.929,-14.25574 -21.9098,-17.67206 -4.7631,-4.08783 -20.9784,-11.84716 -22.0062,-18.09417 -0.6992,-4.25013 4.1625,-9.64069 6.3396,-12.90662 7.1184,-10.67865 15.1124,-21.19794 24.6666,-29.83026 4.2803,-3.86731 11.9296,-11.25214 15.2431,-2.16437 4.2001,11.51935 -11.7561,16.77844 -13.2431,25.99463 m -368,-10 c 0,22.75879 1.713,45.80804 7.1297,68 2.3512,9.63281 5.5526,18.88892 9.449,28 1.7791,4.16003 5.639,9.39691 5.6405,14 0,6.4469 -5.7777,14.13599 -8.2192,20 h -1 c -12.1725,-28.24829 -22.216,-53.17694 -26.4236,-84 -2.4728,-18.11469 -4.0621,-34.97125 13.4236,-46 m 429,0 c 5.5318,4.50537 12.1546,9.89484 14.3481,17 2.7196,8.80975 -0.1198,21.0318 -1.193,30 -3.3003,27.58063 -10.6878,58.52722 -26.1551,82 -3.2844,-4.33972 -10.1581,-15.49524 -9.3687,-21 1.0319,-7.19647 6.5909,-15.11023 9.1404,-22 4.6144,-12.46997 7.6826,-25.88428 9.7901,-39 1.5248,-9.48999 2.4376,-19.39716 2.4382,-29 4e-4,-5.61938 -1.189,-12.78339 1,-18 m -127,19 1,1 -1,-1 m -187,144.42902 c -16.497,2.28375 -32.1715,11.43853 -38.5354,27.57098 -11.7995,29.91144 11.4326,67.60712 45.5354,63.55713 20.5376,-2.43909 37.7925,-16.76026 41.5355,-37.55713 5.0177,-27.87915 -19.0896,-57.64728 -48.5355,-53.57098 m 193,-0.003 c -16.9692,2.22797 -32.1203,11.03345 -38.743,27.57398 -11.9145,29.75684 11.7678,67.96106 45.743,63.70984 21.317,-2.6673 38.6103,-18.08643 41.6999,-39.70984 3.9292,-27.50031 -20.0897,-55.33069 -48.6999,-51.5741 m -204,17.94373 c 15.8815,-2.08905 20.4505,23.02026 4,25.41278 -16.8197,2.44617 -20.6489,-23.22278 -4,-25.41278 m 193,0.0501 c 16.3312,-1.72418 19.2541,23.63422 3,25.37738 -16.2392,1.74152 -19.328,-23.6535 -3,-25.37738 m -170,30.24231 c 5.399,-0.56452 6.3555,8.28857 0.9568,8.87189 -5.8037,0.62707 -6.8804,-8.25251 -0.9568,-8.87189 m 193,0.20526 c 5.4279,0 5.4826,8.49689 0,8.49689 -5.4824,0 -5.4278,-8.49689 0,-8.49689 m -181.9567,13.7801 c 7.5628,-2.48474 10.5119,9.35016 2.9382,11.50153 -7.2651,2.06372 -10.0696,-9.15851 -2.9382,-11.50153 m 192.0154,-0.0394 c 8.0281,-3.08301 11.9386,9.21741 3.8974,11.5409 -6.8836,1.98895 -10.799,-8.89051 -3.8974,-11.5409 m -146.0587,53.392 c 0.893,16.31049 22.1962,18.21802 31,7 h 1 c 9.1901,11.8714 30.2065,9.51306 32,-7 -4.5222,1.25635 -7.5428,4.97424 -12,6.34644 -6.3832,1.96521 -19.1212,-4.08228 -16.3526,-12.24146 2.4052,-7.08813 26.2783,-16.03265 12.2439,-26.13507 -1.4682,-1.05682 -3.1829,-1.80164 -4.8913,-2.37116 -2.5551,-0.85186 -5.3179,-1.32214 -8,-1.50927 -9.5854,-0.66876 -30.293,2.95703 -21.6558,16.89587 3.0742,4.96124 12.4476,7.8302 13.8673,13.11963 1.9495,7.26367 -8.0377,13.54804 -14.2115,12.53931 -4.9228,-0.80432 -8.5749,-4.67548 -13,-6.64429 m 333,41 c -4.0607,12.26752 -13.3234,22.13916 -16.8479,35 -6.7567,24.65472 -2.1549,48.09155 -2.1521,73 -6.3743,-2.98077 -8.8899,-13.84192 -14.375,-15.6543 -4.1874,-1.38366 -11.4097,12.66321 -13.625,15.6543 h -2 c -2.3501,-5.02533 -3.9246,-23.66193 -8.3171,-25.83948 -6.0543,-3.0014 -20.7925,11.60681 -26.6829,13.83948 -1.1223,-8.88086 -1.9097,-17.06738 -0.5617,-26 0.3924,-2.60034 1.9426,-7.09741 -0.9113,-8.88196 -6.0116,-3.75915 -19.2749,6.42981 -24.527,8.88196 -1.9133,-8.03687 5.2336,-26.17065 -6,-26 5.2926,-9.39722 16.9578,-16.3363 26,-21.79626 28.0082,-16.91236 57.7859,-22.20374 90,-22.20374 m -402,37 -7,16 30,9 c -2.8299,21.91357 -6.1675,42.71973 2.453,64 3.3029,8.15344 8.2017,21.94116 18.547,16 5.1775,11.99976 14.53,21.47211 25,29 l -2,31 -28,-1.83026 -35,9.83026 -20,-69 h -1 c -0.015,22.47302 5.3467,56.53357 -10.3287,74.98456 -5.2616,6.1933 -14.4613,10.4447 -21.6713,14.01544 -15.1807,-23.01874 -23.6472,-56.54529 -6.7793,-81 5.8139,-8.42883 14.9834,-11.13062 21.7793,-18 l -7,1 c 4.4262,-34.27356 21.9642,-64.68915 35,-96 l 6,1 m 247,95 h -7 v 1 c 39.8288,14.69629 35.8493,68.30115 15,97 h -1 c -6.4288,-4.90192 -15.2279,-6.88239 -20.5324,-13.04321 -16.6784,-19.3711 -10.4649,-53.33228 -10.4676,-76.95679 h -1 l -21,71 c -19.6326,-11.80792 -40.0141,-11.79321 -62,-9 l -1.3819,-29.96063 10.3673,-11.0401 13.0146,-18.99927 c 8.9184,4.80127 12.5779,-3.67419 16.2408,-11 7.9491,-15.89832 8.8855,-32.66992 7.6698,-50 -0.3051,-4.34808 -4.3427,-14.63293 -1.8434,-18.29785 3.5362,-5.1853 22.7887,-8.94568 28.9328,-10.70215 l -7,-15 c 8.9383,-2.40863 13.1237,13.46405 16.2547,20 11.5729,24.1582 19.3691,49.11816 25.7453,75 m 39,-82 c -0.4495,5.69598 -4.2117,24.19183 4.1088,26.18286 5.6336,1.34802 16.2953,-7.27734 21.8912,-9.18286 -2.2316,9.05859 -2.5384,17.88678 -0.3233,27 0.7513,3.0907 2.3708,8.61444 6.3666,8.66895 7.4402,0.10156 16.8783,-10.98603 23.9567,-13.66895 0.046,5.57324 3.0351,27.48267 12.0155,25.38733 5.798,-1.35278 10.0828,-9.36322 13.9845,-13.38733 3.5238,5.15869 13.0707,10.68469 14.6822,16.20911 1.4458,4.95636 0.3261,11.65149 0.3178,16.79089 -0.086,53.86353 -61.8897,74 -106,74 2.359,-18.26691 5.8342,-35.16809 -1.4536,-53 -3.9979,-9.78204 -12.0511,-15.00281 -17.6089,-23.42438 -7.2299,-10.95538 -5.8783,-26.82513 -2.51,-38.57562 3.8189,-13.32251 14.5888,-42.25525 30.5725,-43 m -155,126 c 0,18.71027 -5.0742,69.15692 -36,56.51697 -19.6841,-8.04529 -20,-38.92847 -20,-56.51697 l 27,10.60492 29,-10.60492 m 122,75 h -1 c -0.9661,-9.64075 -6.2261,-16.16504 -15,-20 10.9699,-3.56836 15.9784,12.14142 16,20 m -172,2 2,1 v 1 l -2,-2 m 16,16 1,1 z"
       id="path1" />
  </g>
</svg>
